<svg width="612.002" height="558" xmlns="http://www.w3.org/2000/svg">

 <g>
  <title>background</title>
  <rect fill="none" id="canvas_background" height="560" width="614.002" y="-1" x="-1"/>
 </g>
 <g>
  <title>Layer 1</title>
  <g transform="rotate(45.5, 247.395, 280.954)" id="svg_1">
   <path fill="#0F0" id="svg_2" d="m470.718658,125.353699c21.108856,-28.678024 33.7435,-58.452751 33.80484,-79.724594c-0.026062,-6.888474 -1.387268,-12.271664 -3.977051,-16.28178c-0.2724,-0.490387 -1.018463,-1.773911 -2.335266,-3.038704c-1.309021,-1.318481 -2.485535,-2.022934 -2.740082,-2.165398c-4.144257,-2.807579 -9.47348,-4.161907 -16.262115,-4.161907c-20.906494,0.035812 -50.251038,12.850758 -78.515076,34.310211c-22.845703,17.351242 -45.693176,41.787178 -77.32074,75.624962c-5.365204,5.738785 -11.01123,11.77272 -16.982208,18.100037l-61.2612,-18.634796l0.183945,-0.178268c2.546036,-2.611404 3.995529,-6.202759 3.960281,-9.731873c0.035248,-3.725266 -1.448639,-7.316574 -4.003937,-9.900772l-11.063248,-11.246582c-2.555237,-2.611465 -6.085388,-4.10817 -9.737305,-4.10817c-3.688019,0 -7.129837,1.443832 -9.70282,4.081726l-16.551224,16.808044l-8.763306,-2.655792c1.888138,-2.433197 2.932617,-5.471863 2.897339,-8.466278c0.035278,-3.778961 -1.404984,-7.298737 -3.994736,-9.910141l-11.116211,-11.282372c-2.537643,-2.584137 -6.050018,-4.063843 -9.737228,-4.063843c-3.670395,0 -7.103821,1.453247 -9.649872,4.081757l-15.189896,15.408455l-62.288986,-18.937569c-1.395706,-0.418739 -2.871246,-0.641335 -4.451836,-0.641335c-4.42498,0.053711 -8.525574,1.720215 -11.519539,4.732475l-21.898758,22.234718c-2.485573,2.521866 -3.881283,5.935028 -3.854431,9.169861c-0.078964,4.767456 2.520039,9.169891 6.681988,11.433334l130.987629,74.270599c0.641159,0.365036 2.493988,1.755997 3.178833,2.451141l37.343277,37.892975c-34.929138,37.348907 -66.047577,73.522675 -90.298248,104.989563c-2.265472,2.923523 -4.408249,5.774597 -6.515686,8.600159l-101.335472,-9.3396c-0.491581,-0.062286 -1.045332,-0.107422 -1.747824,-0.107422c-4.645088,0.098053 -9.184315,1.961517 -12.555566,5.26712l-10.212034,10.355438c-2.520028,2.50473 -3.942619,5.890533 -3.907363,9.161255c-0.078991,4.990997 2.897297,9.606598 7.366844,11.629486l71.288441,34.363953c0.614197,0.312103 2.212479,1.461731 2.730888,1.987183l5.918175,5.962341c-1.852844,5.29364 -2.792267,9.882782 -2.845215,13.91153c-0.01767,5.391022 1.694847,10.007507 4.970314,13.331879l0.254562,0.223541l0.069794,0.052795c3.362831,3.306488 7.718018,4.990936 13.109344,4.990936c3.881264,-0.062225 8.359222,-0.997894 13.592537,-2.869049l6.005524,6.086761c0.465515,0.498993 1.580605,2.085358 1.870453,2.718109l33.787193,72.194794c2.063766,4.606995 6.51474,7.592102 11.361572,7.592102l0.069717,0c3.354492,0 6.559296,-1.363708 9.008728,-3.858337l10.457443,-10.649536c3.098999,-3.315063 4.92572,-7.88623 4.995468,-12.707397c0,-0.587585 -0.02597,-1.043091 -0.043671,-1.292908l-9.228088,-103.225067c2.774673,-2.121063 5.58461,-4.304382 8.472702,-6.585846c31.047836,-24.649811 66.696991,-56.260742 103.425201,-91.658478l37.370117,37.964722c0.605835,0.587677 2.019257,2.469025 2.432739,3.252869l73.036255,132.705414c2.22998,4.286499 6.523865,6.933655 11.283295,6.933655c3.398041,0 6.629028,-1.363586 9.105408,-3.894104l22.055847,-22.369446c2.862915,-3.037842 4.469513,-7.164886 4.513245,-11.673828c0,-1.514648 -0.210083,-2.984985 -0.59671,-4.366669l-18.658508,-63.238007l15.180695,-15.435059c2.555267,-2.576385 4.00473,-6.158325 4.00473,-9.838379c0,-3.698822 -1.414154,-7.174194 -3.986328,-9.821503l-11.133759,-11.290924c-2.546143,-2.593567 -6.067749,-4.072327 -9.693542,-4.072327c-3.072998,0 -6.075317,1.04303 -8.420654,2.923553l-2.608276,-8.858582l16.568848,-16.816467c2.546143,-2.593567 3.995667,-6.176361 3.995667,-9.865814c0,-3.715912 -1.414154,-7.199799 -3.995667,-9.81131l-11.081696,-11.247345c-2.555389,-2.629395 -6.102203,-4.117523 -9.74646,-4.117523c-3.661194,0 -7.208862,1.506042 -9.711273,4.09964l-0.114258,0.106567l-18.351959,-62.16861c6.340149,-6.131165 12.353943,-11.968887 18.105713,-17.467224c33.220825,-31.994766 57.208618,-55.094284 74.259735,-78.228729z"/>
  </g>
  <g id="svg_3"/>
  <g id="svg_4"/>
  <g id="svg_5"/>
  <g id="svg_6"/>
  <g id="svg_7"/>
  <g id="svg_8"/>
  <g id="svg_9"/>
  <g id="svg_10"/>
  <g id="svg_11"/>
  <g id="svg_12"/>
  <g id="svg_13"/>
  <g id="svg_14"/>
  <g id="svg_15"/>
  <g id="svg_16"/>
  <g id="svg_17"/>
 </g>
</svg>